<svg xmlns="http://www.w3.org/2000/svg" fill="none" viewBox="0 0 24 24" id="Arm-Flex-2--Streamline-Ultimate"><desc>Arm Flex 2 Streamline Icon: https://streamlinehq.com</desc><path stroke="currentColor" stroke-linecap="round" stroke-linejoin="round" stroke-miterlimit="10" d="M22 14.0311c-2.2 0 -4 1.8 -4 4 0 -2.2 -2.2 -4 -5 -4s-5 1.8 -5 4l-1 -9s1.68809 1.0316 3.7928 -0.26554" stroke-width="1.5"></path><path stroke="currentColor" stroke-linecap="round" stroke-linejoin="round" stroke-miterlimit="10" d="M22 23.25H4c-1.1 0 -2 -0.9088 -2 -2.0196L3.5 7.59775c0.1 -0.80786 0.4 -1.51474 0.8 -2.12063L10.9 0.932919c0.4 -0.302947 0.9 -0.201966 1.2 0.100981l1.5 1.51473c0.8 0.70688 1.2 1.71671 1.1 2.82751 0 1.00982 -0.5 2.01964 -1.3 2.72652l-0.6 0.50491c-0.6 0.50491 -1.5 0.50491 -2.1 0.10098 -0.8 -0.50491 -1 -1.61572 -0.4 -2.42358l0.8 -0.90883" stroke-width="1.5"></path></svg>