<svg xmlns="http://www.w3.org/2000/svg" fill="none" viewBox="0 0 14 14" id="Github-Logo--Streamline-Core.svg"><desc>Github Logo Streamline Icon: https://streamlinehq.com</desc><g id="github--github-code-branch-developer-portal"><path id="Subtract" fill="currentColor" fill-rule="evenodd" d="M0 7c0 -3.86599 3.13401 -7 7 -7 3.866 0 7 3.13401 7 7 0 3.171 -2.1085 5.8496 -5 6.7101v-3.0085c0 -0.4542 -0.15456 -0.8948 -0.43826 -1.24943l-0.27669 -0.34586c0.56846 -0.13134 1.08161 -0.34799 1.50525 -0.63035C10.5136 7.99386 11 7.30038 11 6.50055c0 -0.49513 -0.1864 -0.94951 -0.5 -1.33821V3.5c0 -0.08199 -0.0402 -0.15878 -0.1076 -0.20548 -0.0674 -0.0467 -0.1534 -0.05739 -0.2302 -0.0286l-1.75578 0.65842C7.96757 3.81199 7.49328 3.7511 7 3.7511c-0.49328 0 -0.96757 0.06089 -1.40642 0.17324l-1.7558 -0.65842c-0.07677 -0.02879 -0.16279 -0.0181 -0.23018 0.0286 -0.06739 0.0467 -0.1076 0.12349 -0.1076 0.20548v1.66234c-0.31361 0.3887 -0.5 0.84308 -0.5 1.33821 0 0.79983 0.48639 1.49331 1.2097 1.97541 0.42364 0.28236 0.93679 0.49901 1.50525 0.63035l-0.27669 0.34586C5.15456 9.8068 5 10.2474 5 10.7016v0.4892c-0.19168 -0.0847 -0.34034 -0.2541 -0.39366 -0.4674C4.38985 9.85748 3.61181 9.25 2.71922 9.25H2.5c-0.34518 0 -0.625 0.27982 -0.625 0.625 0 0.3452 0.27982 0.625 0.625 0.625h0.21922c0.31901 0 0.59707 0.2171 0.67444 0.5266 0.19343 0.7737 0.83516 1.3411 1.60634 1.4531v1.2304C2.10851 12.8496 0 10.171 0 7Z" clip-rule="evenodd" stroke-width="1"></path></g></svg>