<svg role="img" viewBox="0 0 24 24" xmlns="http://www.w3.org/2000/svg" id="Threads--Streamline-Simple-Icons"><desc>Threads Streamline Icon: https://streamlinehq.com</desc><title>Threads</title><path d="M12.186 24h-0.007c-3.581 -0.024 -6.334 -1.205 -8.184 -3.509C2.35 18.44 1.5 15.586 1.472 12.01v-0.017c0.03 -3.579 0.879 -6.43 2.525 -8.482C5.845 1.205 8.6 0.024 12.18 0h0.014c2.746 0.02 5.043 0.725 6.826 2.098 1.677 1.29 2.858 3.13 3.509 5.467l-2.04 0.569c-1.104 -3.96 -3.898 -5.984 -8.304 -6.015 -2.91 0.022 -5.11 0.936 -6.54 2.717C4.307 6.504 3.616 8.914 3.589 12c0.027 3.086 0.718 5.496 2.057 7.164 1.43 1.783 3.631 2.698 6.54 2.717 2.623 -0.02 4.358 -0.631 5.8 -2.045 1.647 -1.613 1.618 -3.593 1.09 -4.798 -0.31 -0.71 -0.873 -1.3 -1.634 -1.75 -0.192 1.352 -0.622 2.446 -1.284 3.272 -0.886 1.102 -2.14 1.704 -3.73 1.79 -1.202 0.065 -2.361 -0.218 -3.259 -0.801 -1.063 -0.689 -1.685 -1.74 -1.752 -2.964 -0.065 -1.19 0.408 -2.285 1.33 -3.082 0.88 -0.76 2.119 -1.207 3.583 -1.291a13.853 13.853 0 0 1 3.02 0.142c-0.126 -0.742 -0.375 -1.332 -0.75 -1.757 -0.513 -0.586 -1.308 -0.883 -2.359 -0.89h-0.029c-0.844 0 -1.992 0.232 -2.721 1.32l-1.757 -1.18c0.98 -1.454 2.568 -2.256 4.478 -2.256h0.044c3.194 0.02 5.097 1.975 5.287 5.388 0.108 0.046 0.216 0.094 0.321 0.142 1.49 0.7 2.58 1.761 3.154 3.07 0.797 1.82 0.871 4.79 -1.548 7.158 -1.85 1.81 -4.094 2.628 -7.277 2.65Zm1.003 -11.69c-0.242 0 -0.487 0.007 -0.739 0.021 -1.836 0.103 -2.98 0.946 -2.916 2.143 0.067 1.256 1.452 1.839 2.784 1.767 1.224 -0.065 2.818 -0.543 3.086 -3.71a10.5 10.5 0 0 0 -2.215 -0.221z" fill="currentColor" stroke-width="1"></path></svg>